<svg id="Capa_1" data-name="Capa 1" xmlns="http://www.w3.org/2000/svg" width="800" height="200" viewBox="0 0 800 200">
  <g>
    <path d="M113.61,132.75c0,.27-.39.47-1.17.58a99.26,99.26,0,0,1-11.2.36,97.37,97.37,0,0,1-10.43-.36,5.71,5.71,0,0,1-1.46-.29,2.59,2.59,0,0,1-.82-1.17q-.89-2.28-2.58-6.8-2.28-5.85-7.15-17.28c-.7-1.53-2.32-2.36-4.86-2.52q1.75.12-6,.12c-.58,0-.87,1-.87,3q0,4,.73,11.9t.73,11.89c0,.67-.18,1.06-.53,1.17l-1.64.12c-2.3.16-5.9.24-10.78.24a76,76,0,0,1-10.08-.36c-1.13-.23-1.7-.83-1.7-1.81q0-6.45.62-19.45T45,92.55q0-24.78-1.11-38.67l-.06-.82c0-.66.58-1.11,1.85-1.35s7.23-.46,17.9-.7c7.22-.16,13-.23,17.28-.23q13.37,0,21.8,6,9.55,6.8,9.55,19.63,0,8.55-2.46,13.65T100.66,100c-.9.62-1.35,1.21-1.35,1.75q0-.06,7.15,14.71T113.61,132.75ZM89,80.19c0-4.76-1.56-8.07-4.69-9.9q-3.63-2.12-11.37-2.11-5.56,0-5.91,1.7a99.2,99.2,0,0,0-.36,11.48q0,1.35.06,4c0,1.75.06,3.06.06,3.92,0,.2.63.39,1.88.59a51.52,51.52,0,0,0,7.5.53Q89,90.39,89,80.19Z"/>
    <path d="M178.71,104q0,4.51.52,13.42t.53,13.36c0,1.56-.68,2.4-2,2.51q-7.26.54-16.64.53c-.74,0-1.24-1.12-1.5-3.37s-.55-3.38-.9-3.42a4.84,4.84,0,0,0-1.23,1q-6.57,6.63-14.07,6.62a23.56,23.56,0,0,1-18.92-9,30.3,30.3,0,0,1-7.09-20.16q0-13.53,7.32-21.79,7.62-8.56,20.86-8.56,9.19,0,14.53,6.45c.16.19.3.29.41.29.35,0,.75-1,1.2-2.84s1-2.84,1.62-2.84a51.68,51.68,0,0,1,8.26,1.23,83,83,0,0,1,8.32,2c.58.23.88.55.88.94a10.65,10.65,0,0,1-.18,1.23A128.82,128.82,0,0,0,178.71,104Zm-18.87.35a11.38,11.38,0,0,0-3.14-8.23,11.9,11.9,0,0,0-16.31,0,12.12,12.12,0,0,0,.17,16.4,10.65,10.65,0,0,0,8,3.4,10.85,10.85,0,0,0,8.14-3.25A11.4,11.4,0,0,0,159.84,104.39Z"/>
    <path d="M255,105.15q0,12.54-7.38,20.8-7.62,8.56-20,8.56a24.57,24.57,0,0,1-9.67-2.23c-3.43-1.48-5-2.23-4.68-2.23-.51,0-.77.59-.77,1.76q0,3,.3,9t.29,9a1.68,1.68,0,0,1-1.93,1.87l-12,.06a27.54,27.54,0,0,1-5.21-.29,2,2,0,0,1-1.76-2.17l.12-45.11a110.24,110.24,0,0,0-2.05-23,5.07,5.07,0,0,1-.12-1,1.15,1.15,0,0,1,.7-1.17,50.22,50.22,0,0,1,8.73-1.88,66,66,0,0,1,9.09-1c1.52,0,2.39,1,2.6,3s.48,3,.79,3q-.58,0,5-3.19t10.17-3.19q12.72,0,20.33,8.38Q255,92.21,255,105.15ZM233.26,105a12.6,12.6,0,0,0-2.87-8.2,9.67,9.67,0,0,0-7.68-3.69,9,9,0,0,0-7.5,3.69,13.45,13.45,0,0,0-2.46,8.2,13,13,0,0,0,2.58,8.27,9.07,9.07,0,0,0,7.61,3.57Q233.26,116.87,233.26,105Z"/>
    <path d="M284.29,106.44q0,4.28.18,12.74t.17,12.69c0,.82-.49,1.31-1.46,1.46a66.61,66.61,0,0,1-9,.36,67.23,67.23,0,0,1-9-.36c-.86-.15-1.39-.41-1.58-.76a6.45,6.45,0,0,1-.12-1.75q0-4,.18-12.16t.17-12.22A213.77,213.77,0,0,0,262.55,80a11.65,11.65,0,0,1-.11-1.23c0-.79.52-1.18,1.58-1.18s2.76.12,5,.36,3.93.35,5.07.35,2.83-.1,5.09-.3,4-.29,5.1-.29q1.41,0,1.41,1.17c0,.16,0,.53-.12,1.12A238.84,238.84,0,0,0,284.29,106.44Zm1.52-43.53q0,10.19-11.48,10.19a12.59,12.59,0,0,1-8.14-2.58,9.77,9.77,0,0,1,.11-15.11,12.39,12.39,0,0,1,8-2.7,12.07,12.07,0,0,1,7.91,2.75A9.24,9.24,0,0,1,285.81,62.91Z"/>
    <path d="M364.45,120.09a4.42,4.42,0,0,1-1.23,2.46q-10.79,12.84-28.66,12.84-18.27,0-29.64-12.48-11.09-12.07-11.08-30.47,0-17.82,10.84-30.24,11.31-13,28.77-13,19,0,29.77,11.66a3.68,3.68,0,0,1,1.17,2.29q0,1.11-4.07,8.26t-5.13,8a1.59,1.59,0,0,1-1.17.47,15.33,15.33,0,0,1-2.93-2.35,31,31,0,0,0-6.21-4.39,21.06,21.06,0,0,0-9.61-2.34,16.73,16.73,0,0,0-13.77,6.44A23,23,0,0,0,316.75,92q0,8.89,4.75,14.94a16.64,16.64,0,0,0,13.77,6.56,21.74,21.74,0,0,0,9.67-2.23,29.46,29.46,0,0,0,6.09-4.1A15.2,15.2,0,0,1,353.9,105a1.62,1.62,0,0,1,1.17.64c.63.7,2.33,3.15,5.1,7.32Q364.44,119.45,364.45,120.09Z"/>
    <path d="M426.73,104.51q0,13.35-8.17,21.68t-21.48,8.32q-12.88,0-21.21-8.21t-8.32-21.09q0-13.59,8-22.06t21.56-8.47q13.25,0,21.45,8.29T426.73,104.51Zm-19.22,0a12.6,12.6,0,0,0-2.87-8.18,9.13,9.13,0,0,0-7.44-3.54,9.46,9.46,0,0,0-7.62,3.63,13.12,13.12,0,0,0,0,16.23,9.75,9.75,0,0,0,15.18,0A12.49,12.49,0,0,0,407.51,104.51Z"/>
    <path d="M492.06,131.64a1.67,1.67,0,0,1-1.64,1.81,85.37,85.37,0,0,1-8.55.24,65.32,65.32,0,0,1-9.14-.36,2.12,2.12,0,0,1-1.76-2.4c0-1.83.06-4.61.18-8.32s.17-6.5.17-8.38q0-2.16-.11-6.47t-.12-6.48q0-8-7-8a10.16,10.16,0,0,0-5.34,2c-2.19,1.48-3.28,3-3.28,4.39v31.64a1.91,1.91,0,0,1-1.81,2.17q-2.06.24-8.38.24a66.75,66.75,0,0,1-8.91-.36c-1.21-.19-1.82-.83-1.82-1.93,0-3.05,0-7.63.06-13.77s.06-10.74.06-13.83q0-14.58-2.28-22.91a4.05,4.05,0,0,1-.12-.88,1.27,1.27,0,0,1,.88-1.28q3.69-.42,9.84-1.29,9.32-1.81,10.49-1.82c.43,0,.76,1.32,1,4s.56,4,1,4q-.64,0,6.3-4.07T474,75.39a21,21,0,0,1,12.42,3.51A13.14,13.14,0,0,1,492,90.15v18.69q0,3.81.06,11.4T492.06,131.64Z"/>
    <path d="M541.05,116.17a48.86,48.86,0,0,1-.44,5.33,48.77,48.77,0,0,0-.44,5.24,4.15,4.15,0,0,1-.35,2.14,7.08,7.08,0,0,1-1.94,1.35,34.16,34.16,0,0,1-16.75,4.16q-16.94,0-16.94-12.95c0-2.58.1-6.45.3-11.63s.29-9,.29-11.63c0-1.72-1-2.58-3-2.58H501c-.35,0-.61.06-.76.06-1.49,0-2.23-.53-2.23-1.58,0-.63,0-1.58.15-2.87s.14-2.25.14-2.88c0-.82-.05-2.06-.14-3.75s-.15-2.92-.15-3.75,1.25-1.21,3.75-1.28c1.41,0,2.17-.43,2.29-1.18a43.57,43.57,0,0,0,.23-7c-.16-5-.23-7.44-.23-7.2,0-4.54.43-6.8,1.29-6.8a20.89,20.89,0,0,1,4.51.7,41.74,41.74,0,0,0,4.63.88c2,.27,5,.65,9,1.11,1,.08,1.46.41,1.46,1,0,1.56-.12,3.93-.38,7.09s-.38,5.55-.38,7.15c0,1.91.57,2.87,1.7,2.87q2.05,0,6.21-.18t6.27-.17c.86,0,1.29.29,1.29.88,0,.9-.1,2.24-.29,4a39.37,39.37,0,0,0-.29,4c0,.94,0,2.31,0,4.1s.06,3.17.06,4.11-.56,1.23-1.7,1.23c-.78,0-2.09,0-3.92-.09s-3.15-.09-3.93-.09h-4.39c-.59,0-.88.86-.88,2.58v4.16c0,1.87.06,3.26.06,4.16q0,4.92,1.11,6.8c1,1.68,3.13,2.52,6.21,2.52a19,19,0,0,0,4.19-.68,18.76,18.76,0,0,1,3.84-.67Q541.05,114.88,541.05,116.17Z"/>
    <path d="M606.09,104q0,4.51.53,13.42t.52,13.36c0,1.56-.68,2.4-2,2.51q-7.26.54-16.64.53c-.74,0-1.24-1.12-1.49-3.37s-.56-3.38-.91-3.42a5.21,5.21,0,0,0-1.23,1q-6.57,6.63-14.06,6.62a23.57,23.57,0,0,1-18.93-9,30.3,30.3,0,0,1-7.09-20.16q0-13.53,7.32-21.79,7.62-8.56,20.86-8.56,9.21,0,14.54,6.45c.15.19.29.29.41.29.35,0,.75-1,1.2-2.84s1-2.84,1.61-2.84a51.52,51.52,0,0,1,8.26,1.23,82.3,82.3,0,0,1,8.32,2c.59.23.88.55.88.94A10.65,10.65,0,0,1,608,81.6,128.82,128.82,0,0,0,606.09,104Zm-18.87.35a11.42,11.42,0,0,0-3.13-8.23,11.91,11.91,0,0,0-16.32,0,11.42,11.42,0,0,0-3.11,8.26,11.29,11.29,0,0,0,3.28,8.14,10.66,10.66,0,0,0,8,3.4,10.87,10.87,0,0,0,8.15-3.25A11.39,11.39,0,0,0,587.22,104.39Z"/>
  </g>
  <g>
    <path d="M496.46,170.38a24.16,24.16,0,0,1-.34,3.08,11.7,11.7,0,0,1-.62,2.91.73.73,0,0,1-.65.37,4.65,4.65,0,0,1-.58-.06c-.95-.13-3.73-.19-8.32-.19l-4.47,0-4.46,0c-.43,0-.64-.19-.64-.57,0-1.45.08-3.65.24-6.57s.25-5.11.25-6.57-.08-4.25-.24-8.3c0-1-.11-2.6-.21-4.67l0-.27c0-.3.13-.45.49-.45,1,0,2.41,0,4.34.08s3.38.07,4.35.07,2.38,0,4.29-.07,3.35-.08,4.3-.08c.68,0,1.07.25,1.17.76.07.3.17,1.21.31,2.72s.2,2.44.2,2.77-.13.41-.39.41l-.41,0c-3.46-.29-6.58-.43-9.34-.43-.69,0-1.11.16-1.27.49a6.53,6.53,0,0,0-.09,1.5,2.77,2.77,0,0,0,.39,1.76,1.66,1.66,0,0,0,1.27.37l.76,0,.94,0c1.64,0,3.3,0,5-.14l1.07-.09a10,10,0,0,1,1.06-.08.4.4,0,0,1,.46.45c0-.28-.11.72-.35,3q-.15,1.56-.15,3.12,0,.39-.57.39l-1.76-.19c-.74-.08-2.43-.12-5.08-.12H485.3q-.8,0-.93.39c0,.07,0,.47,0,1.21a5.86,5.86,0,0,0,.19,1.92c.22.49,1.06.78,2.5.87h2.85c.69,0,1.72-.06,3.08-.18s2.38-.19,3.06-.19C496.31,169.67,496.46,169.91,496.46,170.38Z"/>
    <path d="M510.34,160.65a.9.9,0,0,1-.29.53A4.53,4.53,0,0,0,509,161a3.48,3.48,0,0,0-1.94.51,1.86,1.86,0,0,0-.94,1.66,3,3,0,0,0,1,1.74,19.79,19.79,0,0,1,1.86,2.13,5.61,5.61,0,0,1,1,3.18,6.4,6.4,0,0,1-.39,2.11,4.1,4.1,0,0,1-1.13,1.8,13.43,13.43,0,0,1-3.38,2.1,9.81,9.81,0,0,1-3.85.9c-.26,0-.84-.7-1.75-2.12a8.64,8.64,0,0,1-1.35-2.58c0-.12.07-.19.21-.22l2.76-.51c1.14-.36,1.71-1,1.71-1.79a3.27,3.27,0,0,0-1-2c-1.19-1.31-1.81-2-1.86-2.09a5,5,0,0,1-1-3,5.94,5.94,0,0,1,3-5,9.81,9.81,0,0,1,5.68-1.82c.21,0,.72.7,1.54,2.1A10.3,10.3,0,0,1,510.34,160.65Z"/>
    <path d="M526.22,170.73a17.54,17.54,0,0,1-.14,1.77,15.79,15.79,0,0,0-.15,1.75,1.39,1.39,0,0,1-.12.72,2.59,2.59,0,0,1-.64.45,11.46,11.46,0,0,1-5.59,1.38q-5.64,0-5.64-4.31c0-.86,0-2.16.09-3.88s.1-3,.1-3.88c0-.57-.33-.86-1-.86h-.26l-.25,0c-.5,0-.74-.17-.74-.53,0-.2,0-.52,0-1s.05-.75.05-1,0-.69-.05-1.25,0-1,0-1.25.41-.4,1.25-.43c.46,0,.72-.14.76-.39a14.88,14.88,0,0,0,.08-2.34c-.06-1.68-.08-2.48-.08-2.41,0-1.51.14-2.26.43-2.26a7.3,7.3,0,0,1,1.5.23c.74.17,1.26.27,1.54.3l3,.37c.33,0,.49.13.49.33,0,.52,0,1.31-.13,2.36s-.12,1.85-.12,2.38.18,1,.56,1,1.15,0,2.07-.06,1.62-.06,2.09-.06c.29,0,.43.1.43.3a12.46,12.46,0,0,1-.1,1.35c-.06.59-.09,1-.09,1.34s0,.77,0,1.37,0,1.05,0,1.37-.19.41-.57.41l-1.31,0-1.31,0H521c-.2,0-.3.28-.3.86v1.38c0,.63,0,1.09,0,1.39a4.79,4.79,0,0,0,.38,2.27,2.26,2.26,0,0,0,2.07.84,6.32,6.32,0,0,0,1.39-.23,6.18,6.18,0,0,1,1.28-.22C526.08,170.3,526.22,170.44,526.22,170.73Z"/>
    <path d="M548.37,158.7c0,1,0,2.41-.14,4.33s-.13,3.37-.13,4.34,0,2.34.09,4.22.1,3.27.1,4.2a.62.62,0,0,1-.49.66,15.39,15.39,0,0,1-3.14.2,24.51,24.51,0,0,1-3-.12.56.56,0,0,1-.47-.47l-.12-1.17q-.09-.9-.27-.9c.18,0-.47.44-2,1.33a8.26,8.26,0,0,1-4.08,1.33q-5.17,0-6.14-4.67a35.24,35.24,0,0,1-.43-6.29,27.13,27.13,0,0,1,.73-7c.14-.54.41-.8.8-.8.6,0,1.51,0,2.73,0l2.74,0c.4,0,.6.16.6.5a2.61,2.61,0,0,1,0,.41,35.73,35.73,0,0,0-.41,5.39,31.44,31.44,0,0,0,.22,4.65,2.31,2.31,0,0,0,2.56,2.15,3.15,3.15,0,0,0,1.86-.76,2.25,2.25,0,0,0,1-1.58q0-.72,0-9.81a1.68,1.68,0,0,1,.1-.76c.08-.13.32-.19.71-.19.63,0,1.59,0,2.88,0h2.88c.39,0,.62.1.68.3A1.84,1.84,0,0,1,548.37,158.7Z"/>
    <path d="M572.3,148.74c0-.29-.06.14-.16,1.28q-.21,2.17-.33,5.55c-.11,2.55-.16,5.46-.16,8.71a100.51,100.51,0,0,0,.45,11.49,4.44,4.44,0,0,1,0,.47c0,.14-.1.22-.29.25-.47.06-2.2.1-5.18.1-.7,0-1.11-.14-1.21-.41,0-.5-.05-1-.08-1.49a.56.56,0,0,0-.15-.31,1.5,1.5,0,0,0-.3.23,7.21,7.21,0,0,1-5.27,2.07,8.24,8.24,0,0,1-6.6-2.89,10.26,10.26,0,0,1-2.37-6.95,10.5,10.5,0,0,1,2.33-7,8.23,8.23,0,0,1,6.64-2.93,5.78,5.78,0,0,1,4.59,1.87c.18.21.31.32.39.32s.18-.17.18-.51c0-1,0-2.5-.08-4.49s-.08-3.49-.08-4.48c0-.37.1-.59.31-.64.83,0,2-.12,3.44-.23a31,31,0,0,0,3.46-.49C572.15,148.25,572.3,148.41,572.3,148.74Zm-7.37,17.94a3.88,3.88,0,0,0-1.07-2.7,3.43,3.43,0,0,0-2.6-1.16,3.13,3.13,0,0,0-2.55,1.16,4.26,4.26,0,0,0-1,2.78,3.92,3.92,0,0,0,1,2.68,3.15,3.15,0,0,0,2.54,1.17,3.4,3.4,0,0,0,2.62-1.17A4,4,0,0,0,564.93,166.68Z"/>
    <path d="M582.41,167.49c0,.95,0,2.36.06,4.24s.06,3.29.06,4.23c0,.28-.16.44-.49.49a37.44,37.44,0,0,1-6,0c-.29,0-.47-.14-.53-.25a2.1,2.1,0,0,1,0-.59q0-1.35.06-4.05c0-1.81.06-3.16.06-4.07a72.54,72.54,0,0,0-.43-8.83,3.42,3.42,0,0,1,0-.41c0-.26.17-.39.53-.39s.92,0,1.67.11,1.31.12,1.68.12,1,0,1.7-.1,1.33-.09,1.7-.09.47.13.47.39a3.05,3.05,0,0,1,0,.37A81.34,81.34,0,0,0,582.41,167.49Zm.51-14.52q0,3.41-3.83,3.4a4.15,4.15,0,0,1-2.71-.86,3.26,3.26,0,0,1,0-5,4.15,4.15,0,0,1,2.67-.89,4,4,0,0,1,2.64.91A3.08,3.08,0,0,1,582.92,153Z"/>
    <path d="M605,166.84a9.9,9.9,0,0,1-2.72,7.23,10.58,10.58,0,0,1-14.23,0,9.45,9.45,0,0,1-2.77-7,10.29,10.29,0,0,1,2.65-7.36,9.41,9.41,0,0,1,7.19-2.82,9.64,9.64,0,0,1,7.15,2.76A9.8,9.8,0,0,1,605,166.84Zm-6.4,0a4.17,4.17,0,0,0-1-2.72,3.05,3.05,0,0,0-2.48-1.19,3.14,3.14,0,0,0-2.54,1.22,4,4,0,0,0-.94,2.69,4.11,4.11,0,0,0,.94,2.72,3.25,3.25,0,0,0,5.06,0A4.2,4.2,0,0,0,598.57,166.84Z"/>
    <path d="M630.28,172a1.47,1.47,0,0,1-.41.82,11.84,11.84,0,0,1-9.55,4.27,12.72,12.72,0,0,1-9.88-4.16,14.43,14.43,0,0,1-3.69-10.15,14.79,14.79,0,0,1,3.61-10.08A12.16,12.16,0,0,1,620,148.4q6.33,0,9.92,3.89a1.23,1.23,0,0,1,.39.76,12.2,12.2,0,0,1-1.35,2.76,16.47,16.47,0,0,1-1.71,2.67.53.53,0,0,1-.39.16,5.12,5.12,0,0,1-1-.78,9.93,9.93,0,0,0-2.07-1.47,7,7,0,0,0-3.2-.78,5.57,5.57,0,0,0-4.59,2.15,7.64,7.64,0,0,0-1.58,4.92,7.77,7.77,0,0,0,1.58,5,5.52,5.52,0,0,0,4.59,2.19,7.34,7.34,0,0,0,3.22-.74,10.07,10.07,0,0,0,2-1.37,4.41,4.41,0,0,1,1-.74.55.55,0,0,1,.39.21c.21.24.77,1,1.7,2.44A13.76,13.76,0,0,1,630.28,172Z"/>
    <path d="M651.05,166.84a9.87,9.87,0,0,1-2.73,7.23,10.58,10.58,0,0,1-14.23,0,9.45,9.45,0,0,1-2.77-7,10.3,10.3,0,0,1,2.66-7.36,9.38,9.38,0,0,1,7.18-2.82,9.61,9.61,0,0,1,7.15,2.76A9.8,9.8,0,0,1,651.05,166.84Zm-6.41,0a4.17,4.17,0,0,0-1-2.72,3,3,0,0,0-2.48-1.19,3.15,3.15,0,0,0-2.54,1.22,4.09,4.09,0,0,0-.93,2.69,4.16,4.16,0,0,0,.93,2.72,3.17,3.17,0,0,0,2.54,1.21,3.13,3.13,0,0,0,2.52-1.21A4.2,4.2,0,0,0,644.64,166.84Z"/>
    <path d="M672.82,175.88a.55.55,0,0,1-.54.61c-.37,0-1.32.08-2.86.08a21.65,21.65,0,0,1-3-.12.71.71,0,0,1-.59-.8c0-.61,0-1.54.06-2.77s.06-2.17.06-2.8,0-1.2,0-2.16,0-1.67,0-2.15c0-1.79-.77-2.68-2.32-2.68a3.42,3.42,0,0,0-1.78.66c-.73.5-1.09,1-1.09,1.47v10.55a.64.64,0,0,1-.61.72c-.46,0-1.39.08-2.79.08a22.11,22.11,0,0,1-3-.12c-.4-.07-.61-.28-.61-.64,0-1,0-2.55,0-4.59s0-3.59,0-4.61a30,30,0,0,0-.76-7.64,1.23,1.23,0,0,1,0-.29.43.43,0,0,1,.29-.43c.82-.09,1.92-.24,3.29-.43,2.07-.41,3.23-.61,3.49-.61s.26.44.33,1.32.19,1.32.34,1.32c-.15,0,.55-.45,2.1-1.36a8.34,8.34,0,0,1,4-1.36,7,7,0,0,1,4.14,1.18,4.34,4.34,0,0,1,1.85,3.75v6.23c0,.84,0,2.11,0,3.79S672.82,175,672.82,175.88Z"/>
    <path d="M689.15,170.73a15.51,15.51,0,0,1-.15,1.77c-.09.8-.14,1.38-.14,1.75a1.39,1.39,0,0,1-.12.72,2.59,2.59,0,0,1-.64.45,11.46,11.46,0,0,1-5.59,1.38q-5.64,0-5.64-4.31c0-.86,0-2.16.09-3.88s.1-3,.1-3.88c0-.57-.33-.86-1-.86h-.26l-.25,0c-.5,0-.74-.17-.74-.53,0-.2,0-.52,0-1s0-.75,0-1,0-.69,0-1.25,0-1,0-1.25.41-.4,1.25-.43c.46,0,.72-.14.76-.39a14.88,14.88,0,0,0,.08-2.34c-.06-1.68-.08-2.48-.08-2.41,0-1.51.14-2.26.43-2.26a7.3,7.3,0,0,1,1.5.23c.74.17,1.26.27,1.54.3l3,.37c.33,0,.49.13.49.33,0,.52,0,1.31-.13,2.36s-.12,1.85-.12,2.38.18,1,.56,1,1.15,0,2.07-.06,1.62-.06,2.09-.06c.29,0,.43.1.43.3a12.46,12.46,0,0,1-.1,1.35c-.06.59-.09,1-.09,1.34s0,.77,0,1.37,0,1.05,0,1.37-.19.41-.57.41l-1.31,0-1.31,0H683.9c-.2,0-.3.28-.3.86v1.38c0,.63,0,1.09,0,1.39a4.79,4.79,0,0,0,.38,2.27,2.26,2.26,0,0,0,2.07.84,6.32,6.32,0,0,0,1.39-.23,6.18,6.18,0,0,1,1.28-.22C689,170.3,689.15,170.44,689.15,170.73Z"/>
    <path d="M710.83,166.68c0,1,.06,2.5.18,4.48s.17,3.46.17,4.45c0,.52-.22.8-.68.84-1.62.12-3.46.18-5.55.18-.24,0-.41-.38-.5-1.13s-.18-1.13-.3-1.14a1.81,1.81,0,0,0-.41.33,6.56,6.56,0,0,1-4.69,2.21,7.82,7.82,0,0,1-6.3-3,10.07,10.07,0,0,1-2.37-6.72,10.57,10.57,0,0,1,2.44-7.26,8.85,8.85,0,0,1,7-2.85,5.94,5.94,0,0,1,4.84,2.14c0,.07.1.1.14.1s.25-.31.4-1,.33-.94.53-.94a16.41,16.41,0,0,1,2.76.41c1.29.26,2.21.48,2.77.66.2.08.29.18.29.31a2.55,2.55,0,0,1,0,.41A42.63,42.63,0,0,0,710.83,166.68Zm-6.29.12a3.81,3.81,0,0,0-1-2.74,4,4,0,0,0-5.44,0,4,4,0,0,0,.06,5.47,3.56,3.56,0,0,0,2.65,1.13,3.65,3.65,0,0,0,2.72-1.08A3.84,3.84,0,0,0,704.54,166.8Z"/>
    <path d="M735.89,166.9a10.2,10.2,0,0,1-2.34,6.85,8.15,8.15,0,0,1-6.53,2.93A6.62,6.62,0,0,1,722.3,175a.42.42,0,0,0-.24-.11q-.19,0-.36.72c-.11.48-.24.75-.4.8s-2.08.1-5.57.1q-1.23,0-1.23-.45s0-.14,0-.29a115.28,115.28,0,0,0,.39-11.84q0-8.34-.58-14.51l0-.22c0-.2.2-.32.6-.35s1.42-.11,3.4-.29c1.39-.13,2.53-.2,3.4-.2.25,0,.37.22.37.65s0,1.18-.1,2c-.08,1-.12,1.71-.13,2-.07,1.29-.1,3-.1,5.28,0,.4.1.6.31.6a.36.36,0,0,0,.29-.16A6,6,0,0,1,727,156.9a8.19,8.19,0,0,1,6.68,2.91A10.75,10.75,0,0,1,735.89,166.9Zm-7.07-.22a4,4,0,0,0-1-2.74,3.29,3.29,0,0,0-2.59-1.12,3.19,3.19,0,0,0-2.59,1.12,4.18,4.18,0,0,0-.95,2.78,4.11,4.11,0,0,0,.92,2.78,3.34,3.34,0,0,0,2.65,1.11,3.27,3.27,0,0,0,2.64-1.15A4.14,4.14,0,0,0,728.82,166.68Z"/>
    <path d="M745.38,164.69c0,3.56,0,6.28,0,8.19,0,.3,0,.81.06,1.54s.06,1.18.06,1.54-.16.44-.49.49a21.66,21.66,0,0,1-3.16.16,17.13,17.13,0,0,1-3-.16.58.58,0,0,1-.49-.53v-.84c0-1.16,0-2.89,0-5.2s0-4,0-5.19c0-5.47,0-8,0-7.48a63.11,63.11,0,0,0-.49-7.44,1.6,1.6,0,0,1,0-.33c0-.29.17-.43.51-.43h7c.33,0,.48.14.45.41l0,.35Q745.38,158.22,745.38,164.69Z"/>
    <path d="M766.85,165.84c0,1.32-.43,2.07-1.27,2.25-.15,0-1.49.17-4.05.43q-2.29.25-6.87.61a2.75,2.75,0,0,0,1.66,1.93,5.89,5.89,0,0,0,2.58.55,7.41,7.41,0,0,0,3.49-.94l1.49-.94a5.89,5.89,0,0,1,1.37,2,7.21,7.21,0,0,1,1,2.29c0,.09-.1.24-.29.45-1.59,1.7-4.06,2.56-7.4,2.56a10.43,10.43,0,0,1-7.5-2.72,9.59,9.59,0,0,1-2.93-7.36,10.5,10.5,0,0,1,2.61-7.36,9.19,9.19,0,0,1,7.15-3,8.5,8.5,0,0,1,6.37,2.73A9.1,9.1,0,0,1,766.85,165.84ZM760,164.65a3.06,3.06,0,0,0-.86-2.13,2.71,2.71,0,0,0-2-.91,2.45,2.45,0,0,0-2,1,3.54,3.54,0,0,0-.74,2.25.47.47,0,0,0,.54.53,34.37,34.37,0,0,0,4.5-.45C759.8,164.9,760,164.8,760,164.65Z"/>
  </g>
</svg>
